<svg width="105" height="106" viewBox="0 0 105 106" fill="none" xmlns="http://www.w3.org/2000/svg">
<path d="M4.27245 43.3674C7.45912 44.4725 9.8538 45.2744 11.4552 45.7704L11.7049 45.6919C12.0094 44.8555 12.2325 44.2212 12.374 43.789C12.4822 43.6547 12.4007 43.4951 12.1296 43.3116C10.1637 42.7291 8.6785 42.2438 7.67415 41.8541C7.79568 41.4153 7.89986 41.0828 7.984 40.8541C8.0214 40.6427 8.08016 40.4126 8.16163 40.1626C8.23642 39.9326 8.36998 39.5708 8.5623 39.0815C8.75463 38.5908 8.89085 38.2211 8.97232 37.9711C9.38635 36.7025 9.37032 35.6719 8.92424 34.8793C8.81072 34.6732 8.63709 34.4671 8.40471 34.2649C8.19235 34.1 7.97198 33.9391 7.74627 33.7809C6.82606 33.4298 6.41871 33.2716 6.52422 33.3061C5.93523 33.116 5.4197 33.0455 4.97629 33.0934C3.81034 33.1 2.88078 33.8248 2.18628 35.2649C1.57993 36.894 0.861395 39.0469 0.0306697 41.7251C-0.0414512 41.9472 0.00529378 42.0802 0.173576 42.1227C0.575583 42.2318 1.25806 42.4525 2.21834 42.7837C3.0731 43.0802 3.75825 43.2757 4.27245 43.3674ZM3.82503 38.1466C4.10149 37.3301 4.36727 36.6812 4.62103 36.1985C4.68247 36.2078 4.72387 36.1705 4.74524 36.0868C4.76794 36.003 4.80133 35.9578 4.84541 35.9511C5.14591 35.7184 5.49316 35.6652 5.88982 35.7929C5.99667 35.8274 6.10886 35.874 6.22772 35.9338C6.78599 36.3487 6.89684 37.0721 6.56028 38.1041C6.52823 38.1998 6.44141 38.4379 6.29584 38.8182L5.51987 40.9499L5.32755 41.0483C4.96427 40.9525 4.60901 40.8475 4.26176 40.7358C3.91451 40.6227 3.56994 40.5017 3.22803 40.3701L3.14522 40.1839C3.37494 39.5097 3.60199 38.8315 3.82503 38.1466Z" fill="#FFAF96"/>
<path d="M8.39145 30.2915C9.67627 31.0508 10.7394 31.6665 11.5795 32.1399C12.9952 32.9378 14.2787 33.6253 15.4326 34.2064L15.7545 34.1958C16.0309 33.8726 16.3995 33.2569 16.8576 32.3474C16.9445 32.1745 16.8657 32.0136 16.6239 31.866C15.5648 31.2223 13.9127 30.2862 11.6689 29.0574C9.48662 27.8633 7.82917 26.9178 6.69527 26.2209C6.48826 26.2555 6.3734 26.2834 6.34936 26.3047C5.95269 26.9404 5.65887 27.4377 5.46788 27.7941C5.32097 28.1758 5.25686 28.4018 5.2769 28.4696C5.55069 28.6212 6.58976 29.229 8.39145 30.2915Z" fill="#FFAF96"/>
<path d="M13.3316 25.7955C13.9126 26.3168 14.6779 26.9085 15.6262 27.5681C16.4489 28.0349 17.341 28.2091 18.3026 28.0921C19.2643 27.975 20.1083 27.5974 20.8376 26.9577C20.919 26.8673 21.0753 26.7024 21.3077 26.4617C21.512 26.2503 21.6683 26.0854 21.7778 25.9644C22.5257 25.1386 22.9918 24.3593 23.1762 23.6266C23.5621 22.068 23.064 20.588 21.683 19.185L21.3785 19.1358C20.7374 19.7848 20.278 20.2848 20.0015 20.6345L19.9681 20.8287C20.6519 21.6332 20.8803 22.4231 20.6533 23.1997C20.3982 23.7064 20.095 24.1545 19.7411 24.5441C19.4219 24.8965 19.0973 25.1572 18.7688 25.3247C18.0195 25.7144 17.3076 25.6253 16.6305 25.0601C15.2255 23.8806 14.3106 23.0189 13.8872 22.475C13.6963 22.1133 13.5974 21.7316 13.5907 21.3313C13.5894 20.8805 13.7203 20.5015 13.9847 20.1944C14.4589 19.6398 14.6819 19.3779 14.6552 19.4084C15.1988 18.8074 15.7584 18.5148 16.334 18.5268C16.5904 18.4709 16.899 18.5374 17.2609 18.7262C17.6816 18.9403 17.9754 19.0547 18.141 19.0667C18.5551 18.7449 19.0012 18.2675 19.478 17.6345C19.5234 17.5387 19.5247 17.439 19.4833 17.3339C19.4753 17.3127 19.4232 17.2182 19.3284 17.052C18.4001 16.3419 17.5147 15.9616 16.6706 15.9124C16.151 15.8818 15.729 15.9111 15.4031 15.9988C14.4335 16.1491 13.6268 16.5879 12.9817 17.3153C12.768 17.4909 12.569 17.6797 12.3861 17.8832C11.6996 18.6411 11.2522 19.4842 11.0425 20.4111C10.8274 21.3739 10.8982 22.3087 11.2548 23.2143C11.6795 24.0761 12.3727 24.9351 13.3316 25.7955Z" fill="#FFAF96"/>
<path d="M26.5458 20.7011L27.7451 20.0401C28.1244 19.826 28.3475 19.6345 28.4116 19.467C28.3181 19.2529 28.1284 18.9071 27.8426 18.4311C27.5688 17.9949 27.3859 17.6412 27.2924 17.3672C27.474 15.7794 27.6303 14.572 27.7598 13.7422C27.7705 13.701 27.7839 13.6744 27.8012 13.6651C27.8092 13.6597 27.8894 13.6651 28.0416 13.681C28.7628 14.1345 29.2984 14.4749 29.6483 14.7023C30.9051 15.4962 32.0483 16.1997 33.0781 16.8114L33.3398 16.8327L35.4567 15.572C35.4754 15.4669 35.4781 15.3818 35.4647 15.3193C34.4898 14.6983 33.9262 14.3339 33.7766 14.2222C33.2517 13.9576 32.6347 13.5893 31.9241 13.1172C31.3205 12.7236 30.7168 12.3286 30.1144 11.9337C29.7672 11.7289 29.4173 11.5307 29.066 11.3392C28.6413 11.0852 28.3181 10.8419 28.0964 10.6092C28.3127 8.52669 28.489 6.94955 28.6266 5.87772C28.5438 5.62107 28.4316 5.53463 28.2927 5.61708L26.4389 6.7022L26.3254 6.92827C26.2293 7.53865 26.0757 8.64372 25.8633 10.2421C25.679 11.6704 25.5134 12.7754 25.3665 13.5573C25.2623 13.6198 25.1742 13.6425 25.1047 13.6252C24.7428 13.1225 24.286 12.3698 23.7317 11.3685C23.2042 10.411 22.7514 9.68628 22.3721 9.19293C22.1037 9.19957 21.7083 9.38841 21.1835 9.75809C21.1447 9.79267 21.0953 9.82857 21.0339 9.86448C20.9724 9.90038 20.8723 9.9456 20.7334 9.99879C20.5945 10.052 20.493 10.0972 20.4329 10.1331C20.2499 10.2421 20.1524 10.3765 20.1417 10.536L25.9381 20.1904C26.1051 20.5681 26.3067 20.737 26.5458 20.7011Z" fill="#FFAF96"/>
<path d="M35.3793 9.62231C35.5035 10.0066 35.6211 10.1875 35.7306 10.1622C36.6281 9.93747 38.2027 9.46406 40.4532 8.74065C40.4158 8.29649 40.3009 7.77521 40.1073 7.17946C40.0485 6.99727 39.9844 6.81509 39.9149 6.63557L39.7093 6.54248C39.2525 6.71137 38.5099 6.94142 37.4855 7.23265C36.4598 7.52521 35.6999 7.76058 35.203 7.94143C35.1282 7.97601 35.1135 8.18346 35.1563 8.56245C35.199 8.94278 35.2738 9.29518 35.3793 9.62231Z" fill="#FFAF96"/>
<path d="M43.7922 12.6849C44.1755 12.6464 44.4145 12.6331 44.5067 12.6464C44.9234 12.6357 45.2119 12.5533 45.3735 12.399C45.67 11.4748 45.8703 10.77 45.9771 10.286C46.0559 9.98677 46.1988 9.85911 46.4059 9.90433L50.49 9.59714L50.7077 9.65698C50.8026 9.83252 50.9869 10.2541 51.262 10.923C51.4637 11.4456 51.6827 11.8339 51.9151 12.0905C53.4123 11.9775 54.243 11.911 54.4033 11.8884C54.4527 11.8645 54.4727 11.7966 54.4647 11.6863C51.8643 5.71146 50.1455 1.83774 49.3094 0.0637795C49.0503 0.00260855 48.7231 -0.0133491 48.3291 0.0159066C47.7815 0.0464921 47.4516 0.0611199 47.3394 0.0597901C47.1992 0.0903756 47.0536 0.119631 46.9027 0.146227C46.7518 0.172823 46.6396 0.235324 46.5661 0.33107C46.0185 1.97604 45.4215 3.90824 44.7765 6.12768C44.2115 8.07851 43.6466 10.028 43.0816 11.9788C43.0322 12.2767 43.0082 12.4203 43.0068 12.411C43.0135 12.4921 43.0442 12.5599 43.099 12.6171C43.2686 12.6929 43.4983 12.7169 43.7922 12.6849ZM47.0349 7.02929C47.0723 6.91493 47.095 6.84179 47.1017 6.8112C47.4463 5.57981 47.7548 4.62368 48.0299 3.94415C48.1354 3.99734 48.2249 4.09175 48.2957 4.22872C48.309 4.26862 48.3585 4.39096 48.4453 4.59708C48.4974 4.74469 48.703 5.18086 49.0636 5.90428C49.3187 6.44285 49.4803 6.89631 49.5485 7.266L49.3561 7.34179L47.0736 7.45217C47.0189 7.40563 46.9895 7.34711 46.9842 7.27664C46.9815 7.2261 46.9989 7.14365 47.0349 7.02929Z" fill="#FFAF96"/>
<path d="M57.0837 7.246C57.9852 7.45345 59.6039 7.74601 61.9385 8.12234C62.1081 7.7101 62.2443 7.19414 62.3445 6.57578C62.3752 6.38695 62.4006 6.19546 62.422 6.00529L62.2804 5.82843C61.7969 5.77125 61.0316 5.6396 59.9846 5.43481C58.9388 5.23002 58.1535 5.09571 57.6286 5.03055C57.5471 5.02789 57.439 5.20475 57.3027 5.56114C57.1678 5.91753 57.0717 6.26594 57.0169 6.60504C56.9541 7.00398 56.9755 7.21808 57.0837 7.246Z" fill="#FFAF96"/>
<path d="M63.1792 12.9694C66.3392 14.3258 68.5322 15.1968 69.7556 15.5811C70.426 15.7912 71.1032 15.8032 71.7856 15.613C72.4681 15.4242 73.0023 15.0638 73.387 14.5346C73.5593 14.2779 73.7022 14.0133 73.8144 13.7433C74.203 12.8098 74.1576 11.992 73.6795 11.2925C73.6327 11.2194 73.5286 11.113 73.367 10.9747C73.204 10.8364 73.1012 10.7154 73.0571 10.609C73.1773 10.5824 73.2414 10.5704 73.2508 10.5744C73.7823 10.6077 74.2845 10.4787 74.76 10.1874C75.2354 9.89622 75.5773 9.49861 75.787 8.99461L75.8458 8.85498C75.8925 8.74328 75.9393 8.63158 75.986 8.51854C76.2424 7.90284 76.3092 7.27917 76.1864 6.64884C76.0942 6.18474 75.8217 5.74324 75.3676 5.32702C75.1927 5.16744 74.772 4.85759 74.1069 4.39748C72.4628 3.62221 70.4741 2.79108 68.1395 1.90543C67.9392 1.83362 67.7869 1.85357 67.6868 1.96527C65.6313 6.59432 64.0821 10.0957 63.0403 12.4694C62.9268 12.7181 62.9722 12.8843 63.1792 12.9694ZM69.2 5.26186L69.3616 5.22994C71.2501 6.00788 72.4735 6.55575 73.0317 6.87358C73.2107 7.02384 73.3349 7.28848 73.4084 7.6688C73.3883 7.84699 73.3469 8.01588 73.2801 8.17413C73.172 8.4361 73.0277 8.61163 72.8474 8.70073C72.4935 8.89355 72.0715 8.89488 71.5813 8.70339C71.1699 8.53317 70.7626 8.36562 70.3606 8.20072C69.387 7.85497 68.7312 7.56242 68.392 7.32438L68.3425 7.20603C68.7472 6.18075 69.033 5.53181 69.2 5.26186ZM66.4901 11.2659C66.5489 11.1263 66.609 10.9813 66.6704 10.8311C66.7345 10.6502 66.8387 10.4255 66.9843 10.1569C67.1579 9.84569 67.2727 9.61962 67.3315 9.47999L67.4664 9.47068L70.9643 10.9774C71.182 11.1117 71.3476 11.3191 71.4611 11.601C71.5733 11.8829 71.584 12.1356 71.4905 12.3603C71.389 12.6037 71.2127 12.7925 70.9589 12.9282C70.7773 13.0505 70.5649 13.1104 70.3245 13.1104C70.2057 13.105 69.9946 13.0731 69.6915 13.0133C68.9422 12.7593 67.8564 12.3178 66.4313 11.6861C66.4006 11.5731 66.4206 11.4335 66.4901 11.2659Z" fill="#FFAF96"/>
<path d="M75.4278 16.7914C75.3904 16.8526 75.2475 17.0308 75.0017 17.3273C74.8134 17.5534 74.7012 17.7436 74.6652 17.8978C74.748 18.084 74.8748 18.2476 75.0471 18.3898C75.0939 18.4284 75.166 18.4883 75.2635 18.5694C75.361 18.6505 75.4331 18.709 75.4799 18.7489C75.5894 18.8393 75.6815 18.9351 75.755 19.0348L80.7834 23.3035C80.8074 23.3234 80.929 23.4365 81.1507 23.6466C81.3003 23.7835 81.4325 23.8859 81.5473 23.9538C81.7009 24.0535 81.8545 24.1147 82.0081 24.1373C82.6452 23.4817 83.1126 22.9617 83.4078 22.5747C83.4799 22.5029 83.4706 22.3646 83.3797 22.1585C81.128 20.1811 79.4478 18.721 78.3406 17.7808L78.3099 17.5574L78.8442 16.8686C79.2315 16.3566 79.5587 16.0973 79.8245 16.0919L82.5824 18.3686H82.7974C83.3717 17.8047 83.7831 17.3646 84.0355 17.0467C84.1357 16.8938 84.1504 16.7342 84.0769 16.5693C82.8829 15.5175 81.9761 14.7302 81.3577 14.2063C81.323 14.0587 81.355 13.9004 81.4552 13.7329C81.5059 13.6557 81.6141 13.5268 81.7784 13.3446C81.9293 13.1783 82.0375 13.0494 82.1016 12.9563C82.2285 12.8353 82.354 12.7156 82.4809 12.5959C82.6078 12.4762 82.7427 12.4629 82.8883 12.556C83.2702 12.8712 83.6936 13.2209 84.1611 13.6065L87.0085 15.9576C87.3076 16.2449 87.5935 16.5002 87.8659 16.7249C88.0395 16.8154 88.1865 16.8207 88.308 16.7382L89.6623 15.1345C89.689 15.0387 89.6729 14.9403 89.6115 14.8379C89.5247 14.689 89.4766 14.6039 89.4686 14.5826C89.0679 14.2249 88.5804 13.8034 88.0088 13.3193L85.1841 10.9882C84.4963 10.4203 83.9153 9.91501 83.4412 9.47085C83.337 9.43761 83.2262 9.37245 83.11 9.27537C83.0712 9.24346 83.0125 9.19425 82.9337 9.13042C82.8736 9.02803 82.8241 8.96154 82.7854 8.92829C82.5196 8.70888 82.1844 8.74744 81.7797 9.04399C81.4886 9.25144 81.148 9.61314 80.7554 10.1318C80.0809 11.0214 79.8285 11.3645 79.9967 11.161C79.4452 11.8233 78.6852 12.7595 77.7169 13.9709C76.6832 15.2595 75.9206 16.1997 75.4278 16.7914Z" fill="#FFAF96"/>
<path d="M83.7149 24.6278C83.4305 24.7315 83.2929 24.782 83.3009 24.7754C83.2328 24.8206 83.1874 24.8804 83.166 24.9562C83.1807 25.1411 83.2729 25.3525 83.4451 25.5906C83.6682 25.9044 83.7964 26.1039 83.8298 26.1916C84.0448 26.5467 84.2585 26.7568 84.4722 26.822C85.4258 26.6238 86.1403 26.4523 86.6171 26.306C86.9176 26.2275 87.0993 26.2887 87.162 26.4908L89.4379 29.8805L89.4926 30.0986C89.3858 30.2675 89.108 30.6345 88.6579 31.201C88.3013 31.6332 88.0676 32.0135 87.9581 32.342C88.7928 33.5853 89.2602 34.2715 89.3591 34.4005C89.4045 34.4311 89.4726 34.4165 89.5661 34.354C93.5127 29.1611 96.0556 25.7661 97.1949 24.169C97.1214 23.9137 96.9745 23.6224 96.7555 23.2953C96.459 22.8365 96.284 22.5573 96.2306 22.4589C96.1344 22.3525 96.0383 22.2408 95.9408 22.1224C95.8433 22.0054 95.7338 21.9376 95.6136 21.9216C93.9067 22.2554 91.9234 22.6889 89.6636 23.2195C87.6802 23.6889 85.6983 24.1584 83.7149 24.6278ZM89.745 25.7009C89.7878 25.673 89.8679 25.6464 89.9855 25.6225C90.103 25.5985 90.1778 25.5826 90.2085 25.5733C91.4546 25.2661 92.4429 25.064 93.1721 24.9682C93.1775 25.0852 93.1387 25.2089 93.0546 25.3379C93.0265 25.3685 92.9437 25.4722 92.8062 25.6491C92.702 25.7661 92.4229 26.1597 91.9674 26.8273C91.6215 27.3127 91.3037 27.6757 91.0152 27.9177L90.8549 27.7874L89.6369 25.8632C89.6502 25.794 89.6863 25.7395 89.745 25.7009Z" fill="#FFAF96"/>
<path d="M90.7028 35.918C90.5558 35.9765 90.4797 36.0696 90.4744 36.1972C90.5251 36.3715 90.6133 36.7465 90.7388 37.3209C90.8457 37.7957 90.9565 38.1574 91.0727 38.4087L91.1889 38.5337C93.1762 38.0417 94.656 37.6454 95.6283 37.3422L95.8554 37.3555C95.8981 37.5005 96.0677 38.1361 96.3642 39.2611C96.5833 40.0497 96.7462 40.6973 96.8517 41.204C96.817 41.8143 96.4591 42.2439 95.7766 42.4939C95.1876 42.6641 94.6013 42.8396 94.0163 43.0191C93.5048 43.1255 93.1308 43.3011 92.8944 43.5497C92.6994 43.7532 92.6286 44.0218 92.6821 44.3529L92.9372 45.2266C92.9999 45.2612 93.0427 45.317 93.0654 45.3942C93.0827 45.4527 93.0974 45.5484 93.1095 45.6814C93.1215 45.8144 93.1348 45.9048 93.1495 45.954C93.1976 46.1189 93.3205 46.1774 93.5181 46.1309C93.8948 45.8636 94.445 45.6256 95.1662 45.4168C95.2838 45.3835 95.4561 45.333 95.6858 45.2665C95.9155 45.2 96.0838 45.1508 96.1906 45.1202C97.4688 44.7505 98.2421 44.1734 98.5105 43.3902C98.5332 43.2891 98.5586 43.1814 98.584 43.0683C98.6093 42.9553 98.6574 42.8782 98.7309 42.837C99.2544 43.4327 99.9369 43.7399 100.778 43.7598C101.13 43.7319 101.457 43.6734 101.76 43.5856C102.501 43.3702 103.055 43.0205 103.423 42.5364C103.755 42.0816 103.942 41.4912 103.984 40.7638C104.004 40.4313 103.978 39.8236 103.91 38.938C103.321 36.7398 102.876 35.1108 102.577 34.0509C102.491 33.7916 102.405 33.5323 102.318 33.273C102.198 32.9711 102.023 32.8062 101.792 32.7783C96.9973 34.1041 93.4393 35.0922 91.1181 35.7438C90.9886 35.801 90.8497 35.8595 90.7028 35.918ZM100.283 36.1201L100.33 36.1693C100.383 36.4273 100.575 37.1028 100.907 38.1973C101.158 39.0191 101.293 39.7013 101.314 40.2425C101.242 40.5377 101.11 40.7758 100.92 40.9566C100.794 41.0351 100.674 41.0909 100.557 41.1255C100.235 41.2186 99.9476 41.196 99.6965 41.059L99.2224 40.6282C98.7856 39.3861 98.3903 38.1228 98.035 36.8356C99.0007 36.4911 99.7499 36.2531 100.283 36.1201Z" fill="#FFAF96"/>
<path d="M104.825 63.869C104.422 63.7599 103.741 63.5392 102.78 63.2081C101.927 62.9102 101.242 62.716 100.726 62.6243C97.5382 61.5192 95.1449 60.7187 93.5435 60.2227L93.2938 60.3011C92.9893 61.1376 92.7662 61.7719 92.6247 62.2041C92.5165 62.3384 92.5979 62.498 92.8691 62.6815C94.835 63.2639 96.3202 63.7493 97.3245 64.1376C97.203 64.5764 97.0988 64.9089 97.0147 65.1376C96.9773 65.3491 96.9185 65.5791 96.837 65.8291C96.7623 66.0605 96.6287 66.4209 96.4364 66.9116C96.2441 67.4023 96.1078 67.772 96.0264 68.022C95.6123 69.2906 95.6283 70.3212 96.0744 71.1138C96.188 71.3199 96.3616 71.526 96.594 71.7282C96.8063 71.8931 97.0267 72.054 97.2524 72.2122C98.1726 72.5633 98.58 72.7215 98.4745 72.6869C99.0634 72.8771 99.579 72.9476 100.022 72.8997C101.188 72.8917 102.118 72.1683 102.811 70.7281C103.417 69.0991 104.135 66.9448 104.965 64.2679C105.04 64.0445 104.992 63.9129 104.825 63.869ZM101.175 67.8451C100.899 68.6616 100.633 69.3106 100.379 69.7946C100.318 69.7853 100.276 69.8225 100.255 69.9063C100.232 69.9901 100.199 70.0353 100.155 70.042C99.8541 70.2747 99.5069 70.3279 99.1102 70.2002C99.0033 70.1656 98.8912 70.1191 98.7723 70.0593C98.214 69.6444 98.1032 68.9209 98.4397 67.889C98.4718 67.7919 98.5586 67.5552 98.7042 67.1749L99.4788 65.0432L99.6711 64.9448C100.034 65.0406 100.39 65.1456 100.738 65.2573C101.086 65.369 101.43 65.4914 101.772 65.623L101.855 65.8092C101.625 66.4821 101.398 67.1603 101.175 67.8451Z" fill="#FFAF96"/>
<path d="M96.6126 75.6977C95.3278 74.9397 94.2647 74.324 93.4233 73.8506C92.0076 73.054 90.7228 72.3652 89.5702 71.7854L89.2483 71.7974C88.9719 72.1205 88.6046 72.7362 88.1451 73.6471C88.0583 73.82 88.1371 73.9809 88.3789 74.1285C89.438 74.7708 91.0901 75.707 93.3338 76.9357C95.5161 78.1299 97.1749 79.074 98.3088 79.7709C98.5158 79.7363 98.6307 79.7084 98.6547 79.6871C99.0514 79.0501 99.3452 78.5541 99.5362 78.1977C99.6831 77.8161 99.7472 77.59 99.7272 77.5222C99.4534 77.3666 98.4156 76.7589 96.6126 75.6977Z" fill="#FFAF96"/>
<path d="M91.6709 80.1976C91.09 79.6763 90.3247 79.0846 89.3764 78.425C88.5537 77.9582 87.6616 77.784 86.6999 77.9024C85.7383 78.0194 84.8943 78.397 84.165 79.0367C84.0836 79.1271 83.9273 79.292 83.6949 79.534C83.4906 79.7455 83.3343 79.9104 83.2248 80.03C82.4769 80.8559 82.0121 81.6351 81.8278 82.3678C81.4418 83.9264 81.94 85.4064 83.3223 86.8094L83.6268 86.8586C84.2679 86.2096 84.7273 85.7096 85.0038 85.3599L85.0372 85.1657C84.3534 84.3612 84.1236 83.5713 84.3507 82.796C84.6044 82.2894 84.909 81.8412 85.2629 81.4503C85.5821 81.0979 85.9066 80.8372 86.2352 80.6697C86.9844 80.28 87.6963 80.3678 88.3734 80.9343C89.7784 82.1138 90.6933 82.9742 91.118 83.5181C91.309 83.8798 91.4092 84.2615 91.4145 84.6617C91.4172 85.1126 91.285 85.4915 91.0219 85.7987C90.5477 86.3533 90.3247 86.6152 90.3514 86.5846C89.8078 87.1857 89.2482 87.4796 88.6726 87.4663C88.4162 87.5221 88.1076 87.4557 87.7457 87.2668C87.325 87.0527 87.0312 86.9384 86.8656 86.9264C86.4515 87.2482 86.0055 87.7256 85.5287 88.3586C85.4832 88.4543 85.4819 88.5541 85.5233 88.6591C85.5313 88.6804 85.5834 88.7735 85.6782 88.9411C86.6065 89.6512 87.4919 90.0315 88.336 90.0807C88.8556 90.1113 89.2776 90.082 89.6035 89.9929C90.5731 89.8427 91.3798 89.4038 92.0249 88.6751C92.2386 88.4996 92.4362 88.3107 92.6205 88.1073C93.307 87.3493 93.7544 86.5062 93.9641 85.5793C94.1791 84.6152 94.1084 83.6817 93.7504 82.7761C93.323 81.917 92.6299 81.058 91.6709 80.1976Z" fill="#FFAF96"/>
<path d="M78.4622 85.2921L77.2628 85.953C76.8835 86.1671 76.6605 86.3586 76.5964 86.5262C76.6899 86.7403 76.8795 87.086 77.1653 87.5621C77.4391 87.9983 77.6221 88.352 77.7156 88.6259C77.534 90.2137 77.379 91.4225 77.2495 92.251C77.2388 92.2922 77.2254 92.3188 77.2081 92.3281C77.2001 92.3334 77.1186 92.3281 76.9677 92.3121C76.2465 91.8587 75.7096 91.5182 75.361 91.2909C74.1029 90.497 72.9596 89.7948 71.9299 89.1831L71.6681 89.1618L69.5513 90.4225C69.5326 90.5275 69.5299 90.6126 69.5433 90.6752C70.5196 91.2948 71.0818 91.6605 71.2314 91.7722C71.7563 92.0355 72.3747 92.4052 73.0838 92.8773C73.6875 93.2709 74.2912 93.6659 74.8949 94.0595C75.2435 94.2643 75.592 94.4624 75.9433 94.6539C76.368 94.9079 76.6912 95.1499 76.9142 95.3827C76.6992 97.4651 76.5229 99.0423 76.3854 100.114C76.4682 100.371 76.5804 100.457 76.7193 100.375L78.573 99.2883L78.6865 99.0622C78.7814 98.4519 78.9363 97.3468 79.1486 95.7484C79.333 94.3201 79.4972 93.2138 79.6441 92.4332C79.7483 92.3707 79.8365 92.348 79.9059 92.3653C80.2679 92.868 80.7246 93.6207 81.2789 94.622C81.8064 95.5795 82.2605 96.3042 82.6398 96.7976C82.9083 96.7909 83.3036 96.6021 83.8271 96.2311C83.8659 96.1965 83.9153 96.1606 83.9767 96.1247C84.0382 96.0888 84.1383 96.0436 84.2772 95.9891C84.4161 95.9359 84.5163 95.8906 84.5777 95.8534C84.7607 95.7444 84.8582 95.6101 84.8689 95.4505L79.0699 85.7974C78.9016 85.4238 78.6999 85.2562 78.4622 85.2921Z" fill="#FFAF96"/>
<path d="M69.6261 96.3747C69.5019 95.9904 69.3843 95.8096 69.2748 95.8348C68.3773 96.0596 66.8027 96.5343 64.5522 97.2577C64.5896 97.7019 64.7045 98.2232 64.8982 98.8189C64.9569 99.0011 65.021 99.1833 65.0905 99.3628L65.2962 99.4559C65.7529 99.287 66.4955 99.057 67.5199 98.7644C68.5456 98.4719 69.3055 98.2351 69.8024 98.0556C69.8772 98.021 69.8919 97.8136 69.8491 97.4346C69.8064 97.0543 69.7329 96.7019 69.6261 96.3747Z" fill="#FFAF96"/>
<path d="M61.2133 93.3136C60.83 93.3522 60.591 93.3655 60.4988 93.3522C60.0821 93.3628 59.7936 93.4466 59.632 93.5995C59.3355 94.5237 59.1352 95.2285 59.0297 95.7126C58.9509 96.0118 58.808 96.1394 58.601 96.0942L54.5168 96.4014L54.2977 96.3416C54.2029 96.166 54.0186 95.7445 53.7435 95.0756C53.5405 94.553 53.3228 94.1647 53.0904 93.908C51.5932 94.0211 50.7625 94.0889 50.6022 94.1102C50.5528 94.1341 50.5328 94.2019 50.5408 94.3123C53.1425 100.286 54.8614 104.159 55.6988 105.933C55.9579 105.995 56.2851 106.011 56.6791 105.981C57.2266 105.951 57.5565 105.936 57.6687 105.937C57.809 105.907 57.9545 105.878 58.1055 105.851C58.2564 105.824 58.3686 105.762 58.442 105.666C58.9883 104.021 59.5853 102.089 60.2304 99.8695C60.7953 97.9187 61.3589 95.9692 61.9239 94.0184C61.9733 93.7205 61.9973 93.5769 61.9973 93.5862C61.9906 93.5051 61.9613 93.4373 61.9052 93.3801C61.7369 93.3056 61.5072 93.2817 61.2133 93.3136ZM57.9719 98.9706C57.9345 99.085 57.9118 99.1581 57.9051 99.1887C57.5605 100.42 57.252 101.376 56.9782 102.056C56.8727 102.003 56.7832 101.908 56.7125 101.771C56.6991 101.731 56.6497 101.609 56.5629 101.403C56.5108 101.255 56.3051 100.819 55.9445 100.096C55.6894 99.557 55.5278 99.1036 55.4597 98.7339L55.652 98.6581L57.9345 98.5464C57.9893 98.5929 58.0186 98.6514 58.024 98.7219C58.0253 98.7738 58.008 98.8562 57.9719 98.9706Z" fill="#FFAF96"/>
<path d="M47.9217 98.7565C47.0202 98.549 45.4014 98.2578 43.0669 97.8801C42.8972 98.2924 42.761 98.8083 42.6608 99.4267C42.6301 99.6155 42.6047 99.807 42.5834 99.9972L42.7236 100.174C43.2084 100.231 43.9737 100.363 45.0195 100.568C46.0652 100.772 46.8505 100.907 47.3754 100.971C47.4569 100.973 47.5651 100.796 47.7013 100.44C47.8362 100.082 47.9324 99.7352 47.9871 99.3961C48.0526 98.9972 48.0312 98.7831 47.9217 98.7565Z" fill="#FFAF96"/>
<path d="M41.8261 93.033C38.6661 91.6766 36.4731 90.8069 35.2484 90.4226C34.578 90.2125 33.9022 90.2018 33.2184 90.3907C32.5359 90.5795 32.0016 90.9399 31.617 91.4705C31.4447 91.7271 31.3018 91.9918 31.1896 92.2617C30.8023 93.1952 30.8464 94.0131 31.3245 94.7125C31.3713 94.7857 31.4754 94.8921 31.637 95.0304C31.8 95.1687 31.9028 95.2897 31.9469 95.3961C31.8267 95.4227 31.7626 95.4346 31.7532 95.4306C31.2217 95.3974 30.7195 95.5264 30.244 95.8176C29.7686 96.1088 29.4267 96.5065 29.217 97.0104L29.1582 97.1501C29.1115 97.2618 29.0647 97.3748 29.0193 97.4865C28.7629 98.1022 28.6961 98.7259 28.819 99.3562C28.9111 99.8203 29.1849 100.262 29.6377 100.678C29.8126 100.838 30.2334 101.147 30.8998 101.608C32.5439 102.383 34.5339 103.213 36.8671 104.098C37.0675 104.17 37.2184 104.15 37.3199 104.038C39.374 99.4094 40.9219 95.9067 41.9637 93.533C42.0785 93.2843 42.0318 93.1181 41.8261 93.033ZM35.8067 100.742L35.6451 100.774C33.7566 99.9959 32.5332 99.448 31.9749 99.1315C31.796 98.9812 31.6704 98.7166 31.5983 98.3363C31.6183 98.1581 31.6597 97.9892 31.7265 97.8309C31.8347 97.569 31.9789 97.3934 32.1592 97.303C32.5132 97.1102 32.9352 97.1089 33.4254 97.299C33.8367 97.4679 34.2441 97.6355 34.6461 97.8017C35.6197 98.1474 36.2755 98.44 36.6147 98.678L36.6641 98.7964C36.2594 99.823 35.9736 100.472 35.8067 100.742ZM38.5152 94.7365C38.4565 94.8761 38.3977 95.0211 38.3349 95.1713C38.2708 95.3522 38.1666 95.5769 38.0211 95.8455C37.8474 96.1567 37.7326 96.3828 37.6738 96.5224L37.5389 96.5317L34.0411 95.0264C33.8234 94.8934 33.6578 94.6846 33.5442 94.404C33.432 94.1221 33.4214 93.8694 33.5148 93.6447C33.6164 93.4014 33.7926 93.2125 34.0464 93.0769C34.228 92.9545 34.4404 92.8947 34.6808 92.8947C34.7997 92.9 35.0107 92.9319 35.3139 92.9918C36.0631 93.2458 37.1503 93.6873 38.574 94.3176C38.6047 94.4293 38.5847 94.5689 38.5152 94.7365Z" fill="#FFAF96"/>
<path d="M29.5802 89.2151C29.6176 89.154 29.7605 88.9758 30.0063 88.6792C30.1946 88.4531 30.3068 88.263 30.3428 88.1087C30.26 87.9226 30.1331 87.759 29.9608 87.6167C29.9141 87.5781 29.842 87.5183 29.7445 87.4372C29.647 87.3561 29.5749 87.2975 29.5281 87.2576C29.4186 87.1672 29.3265 87.0715 29.253 86.9717L24.2232 82.7044C24.2005 82.6844 24.0777 82.5714 23.8559 82.3613C23.7064 82.2243 23.5741 82.1219 23.4593 82.0541C23.3057 81.9531 23.1521 81.8932 22.9985 81.8706C22.3614 82.5262 21.894 83.0462 21.5988 83.4331C21.5267 83.5049 21.5361 83.6432 21.6269 83.8494C23.88 85.8268 25.5601 87.2856 26.6687 88.2257L26.6994 88.4492L26.1652 89.138C25.7778 89.65 25.452 89.9093 25.1848 89.9146L22.4269 87.6393H22.2119C21.6389 88.2031 21.2262 88.6433 20.9738 88.9611C20.8736 89.1141 20.8589 89.2736 20.9324 89.4385C22.1277 90.4904 23.0332 91.2777 23.6529 91.8016C23.6877 91.9492 23.6556 92.1075 23.5554 92.275C23.5047 92.3521 23.3978 92.4811 23.2322 92.6633C23.0813 92.8295 22.9731 92.9585 22.909 93.0516C22.7835 93.1726 22.6566 93.2923 22.5297 93.412C22.4028 93.5317 22.268 93.5463 22.1224 93.4519C21.7404 93.1367 21.317 92.787 20.8496 92.4027L18.0008 90.0529C17.7016 89.767 17.4145 89.5103 17.1434 89.2856C16.9697 89.1952 16.8228 89.1899 16.7013 89.2736L15.347 90.8774C15.3203 90.9731 15.3377 91.0715 15.3978 91.1739C15.4846 91.3229 15.5327 91.408 15.542 91.4292C15.944 91.787 16.4302 92.2072 17.0018 92.6926L19.8279 95.0237C20.5157 95.5915 21.0967 96.0969 21.5708 96.541C21.675 96.5743 21.7858 96.6394 21.9033 96.7365C21.9421 96.7684 22.0008 96.8176 22.0796 96.8814C22.1397 96.9838 22.1892 97.0503 22.2279 97.0822C22.4937 97.3017 22.8289 97.2631 23.2336 96.9666C23.5247 96.7591 23.8653 96.3974 24.2566 95.8788C24.9311 94.9891 25.1835 94.646 25.0152 94.8482C25.5668 94.1859 26.3268 93.2484 27.295 92.037C28.3248 90.7484 29.0874 89.8069 29.5802 89.2151Z" fill="#FFAF96"/>
<path d="M21.289 81.3786C21.5735 81.2735 21.711 81.2243 21.703 81.231C21.7711 81.1857 21.8152 81.1259 21.8379 81.0501C21.8232 80.8653 21.7311 80.6538 21.5588 80.4158C21.3357 80.1019 21.2075 79.9025 21.1741 79.8147C20.9591 79.4597 20.7454 79.2496 20.5317 79.1844C19.5781 79.3825 18.8636 79.5541 18.3868 79.7004C18.0863 79.7801 17.9047 79.7176 17.8419 79.5168L15.5647 76.1272L15.51 75.9091C15.6168 75.7402 15.8946 75.3732 16.3447 74.8067C16.7013 74.3745 16.935 73.9942 17.0432 73.6657C16.2085 72.4223 15.741 71.7362 15.6422 71.6072C15.5968 71.5766 15.5287 71.5925 15.4352 71.6537C11.4899 76.8466 8.94698 80.2429 7.80774 81.84C7.8812 82.0953 8.02811 82.3866 8.24848 82.7137C8.54497 83.1725 8.71994 83.4517 8.77336 83.5501C8.86952 83.6565 8.96568 83.7682 9.06318 83.8866C9.16067 84.0049 9.27019 84.0714 9.39039 84.0874C11.0973 83.7523 13.0806 83.3201 15.3404 82.7882C17.3224 82.3187 19.3057 81.8493 21.289 81.3786ZM15.2576 80.3067C15.2148 80.3347 15.1347 80.3613 15.0172 80.3852C14.8996 80.4091 14.8248 80.4251 14.7941 80.4344C13.548 80.7416 12.5597 80.9437 11.8305 81.0408C11.8251 80.9238 11.8639 80.8001 11.948 80.6711C11.9761 80.6405 12.0589 80.5368 12.1964 80.3599C12.3006 80.2416 12.5797 79.8493 13.0352 79.1817C13.3811 78.6964 13.6989 78.3333 13.9874 78.0913L14.1477 78.2216L15.3671 80.1458C15.3537 80.2137 15.3163 80.2682 15.2576 80.3067Z" fill="#FFAF96"/>
<path d="M14.2986 70.0899C14.4456 70.0314 14.5217 69.9383 14.527 69.8107C14.4763 69.6365 14.3881 69.2615 14.2626 68.687C14.1557 68.2122 14.0449 67.8505 13.9287 67.5992L13.8125 67.4755C11.8252 67.9676 10.3454 68.3652 9.37305 68.667L9.14601 68.6537C9.10327 68.5088 8.93365 67.8731 8.63715 66.7481C8.41678 65.9595 8.25518 65.3119 8.14833 64.8053C8.18306 64.1949 8.54099 63.7654 9.22347 63.5154C9.81246 63.3452 10.3988 63.1696 10.9838 62.9888C11.4953 62.8824 11.8692 62.7055 12.1056 62.4582C12.3006 62.2547 12.3714 61.9861 12.318 61.655L12.0629 60.7813C12.0001 60.7467 11.9574 60.6909 11.9347 60.6137C11.9173 60.5552 11.9026 60.4595 11.8906 60.3265C11.8773 60.1935 11.8652 60.1031 11.8505 60.0539C11.8025 59.889 11.6796 59.8305 11.4819 59.877C11.1053 60.1443 10.555 60.3824 9.83383 60.5911C9.7163 60.6257 9.54401 60.6749 9.31429 60.7414C9.08457 60.8079 8.91629 60.8571 8.80944 60.8877C7.5313 61.2587 6.758 61.8345 6.48955 62.6178C6.46685 62.7188 6.44147 62.8265 6.4161 62.9396C6.39072 63.0526 6.34264 63.1297 6.26919 63.171C5.74564 62.5752 5.06316 62.268 4.22175 62.2481C3.8705 62.276 3.54328 62.3345 3.24011 62.4223C2.49887 62.6377 1.9446 62.9874 1.57866 63.4728C1.2461 63.9276 1.05912 64.518 1.01772 65.2454C0.99902 65.5779 1.02306 66.1856 1.09117 67.0713C1.68016 69.2681 2.12491 70.8984 2.42541 71.9583C2.51222 72.2176 2.5977 72.4769 2.68451 72.7362C2.80471 73.0381 2.97967 73.203 3.21073 73.2309C8.00543 71.9051 11.5634 70.9157 13.8846 70.2641C14.0128 70.2069 14.1517 70.1484 14.2986 70.0899ZM4.71859 69.8905L4.67184 69.8412C4.61842 69.5833 4.42476 68.9077 4.09487 67.8133C3.84379 66.9915 3.70756 66.3093 3.68753 65.7681C3.75965 65.4742 3.89187 65.2348 4.08152 65.054C4.20706 64.9755 4.32726 64.9196 4.44479 64.8851C4.76667 64.792 5.05382 64.8146 5.3049 64.9516L5.77903 65.3824C6.21576 66.6245 6.61243 67.8878 6.96769 69.175C6.00074 69.5194 5.25148 69.7575 4.71859 69.8905Z" fill="#FFAF96"/>
<path d="M69.1305 22.947C64.066 20.1624 58.3204 18.6917 52.4986 18.6917C45.4642 18.6917 38.6982 20.7888 32.9325 24.7556C28.9044 25.2768 25.6804 28.3779 24.9912 32.3354C20.4449 38.3262 18.0409 45.4686 18.0409 53.0006C18.0409 56.9687 18.7154 60.8584 20.0456 64.5606C21.3317 68.1391 23.1989 71.4636 25.5962 74.441C25.6376 74.4929 25.6897 74.5328 25.7458 74.5607C25.9395 74.949 26.1612 75.3293 26.4163 75.6977C26.6059 76.0461 28.8176 80.0528 32.1552 83.9757C34.2053 86.3853 36.2755 88.2976 38.3082 89.6566C40.7964 91.3216 43.2418 92.1646 45.579 92.1646C45.6632 92.1646 45.7487 92.1633 45.8328 92.162C55.2793 91.9146 65.6567 87.0569 75.8564 78.1153C75.9459 78.1006 76.0314 78.0621 76.1022 77.9956C79.4932 74.82 82.1617 71.0686 84.0342 66.8465C85.9734 62.4754 86.9564 57.8171 86.9564 52.9993C86.9564 44.5337 83.8365 36.4126 78.171 30.116C77.2227 26.0162 73.5312 22.9484 69.1305 22.947ZM77.2668 30.354C77.2695 30.4046 77.2815 30.4538 77.3015 30.5016C77.4151 31.0469 77.4752 31.6107 77.4752 32.1892C77.4752 35.1506 75.9099 37.8568 73.3656 39.3502C72.6484 38.2664 71.8497 37.2411 70.9749 36.2836C72.79 35.5496 74.0027 33.7969 74.0027 31.7902C74.0027 29.1133 71.8164 26.9364 69.1278 26.9364C66.6784 26.9364 64.6457 28.745 64.3038 31.0907C63.2981 30.5508 62.251 30.0788 61.1678 29.6785C62.235 26.3114 65.3428 23.975 68.9061 23.8819C69.033 23.9391 69.1746 23.9364 69.2948 23.8819C73.1907 23.959 76.4374 26.7037 77.2668 30.354ZM57.9237 73.7868C58.1721 73.5979 58.3939 73.3798 58.5862 73.1272C59.5091 71.9237 59.5358 70.3146 59.4596 69.413C63.3929 70.163 66.5382 69.7109 68.8287 68.0699C69.1986 67.9064 70.9816 66.9675 72.0527 63.6457C73.0624 60.8744 72.8781 58.1855 72.8648 58.0179C72.8634 58.0007 72.8594 57.9834 72.8568 57.9674C72.8554 57.9608 72.8554 57.9541 72.8541 57.9475C72.8461 57.9155 72.8354 57.8863 72.822 57.857C72.8194 57.8504 72.8154 57.8437 72.8113 57.8371C72.7993 57.8145 72.786 57.7932 72.7699 57.7733C72.7646 57.7666 72.7593 57.76 72.7539 57.7533C72.7326 57.7294 72.7098 57.7068 72.6845 57.6868C72.6831 57.6868 72.6831 57.6855 72.6818 57.6842C72.6791 57.6815 72.6751 57.6802 72.6725 57.6788C72.6497 57.6629 72.6257 57.6483 72.6003 57.6363C72.5923 57.6323 72.5843 57.6283 72.575 57.6256C72.5496 57.615 72.5242 57.607 72.4962 57.6017C72.4908 57.6004 72.4855 57.5991 72.4801 57.5977C72.4788 57.5977 72.4775 57.5964 72.4761 57.5964L67.9285 56.8357C70.3806 55.0871 71.8644 52.2612 71.8644 49.212C71.8644 46.0258 70.2778 43.1122 67.6093 41.3701C68.4347 40.6667 68.9262 39.7903 68.9262 38.8395C68.9262 36.5257 66.0266 34.6506 62.4487 34.6506C58.8707 34.6506 55.9711 36.5257 55.9711 38.8395C55.9711 39.7917 56.4626 40.668 57.2893 41.3715C56.317 42.0071 55.4609 42.8249 54.7838 43.7678C53.1077 42.2358 50.8746 41.2996 48.4251 41.2996C43.2338 41.2996 39.0094 45.5058 39.0094 50.6748C39.0094 51.587 39.1416 52.482 39.3994 53.3463C36.8871 53.7134 34.5846 55.2466 33.3532 57.6669C33.237 57.8956 33.3292 58.1762 33.5589 58.2919C33.7886 58.4076 34.0704 58.3158 34.1866 58.0871C35.9669 54.587 40.2755 53.1828 43.7894 54.9554C45.4922 55.8145 46.757 57.2812 47.3514 59.0871C47.9457 60.893 47.7974 62.8212 46.9347 64.5167C46.8185 64.7454 46.9106 65.026 47.1403 65.1417C47.2084 65.1763 47.2806 65.1922 47.3514 65.1922C47.5223 65.1922 47.6866 65.0991 47.768 64.9369C48.5467 63.4063 48.8085 61.7068 48.5413 60.0446C51.7814 60.0047 54.6315 58.3278 56.2957 55.8078C56.3357 55.8278 56.3798 55.845 56.4266 55.853L70.3072 58.1762L65.8557 59.4688C65.7034 59.5126 65.5846 59.631 65.5392 59.7813C65.4938 59.9315 65.5271 60.0951 65.6286 60.2161C66.8173 61.6204 69.5833 65.6098 68.2691 67.3226C66.0908 68.8745 63.0056 69.2335 59.0857 68.3878L50.0719 62.8438C49.9263 62.7547 49.742 62.7507 49.5938 62.8358C49.4455 62.9209 49.3547 63.0805 49.3587 63.2507C49.3667 63.5579 49.5737 70.8067 52.5721 73.554C53.0168 73.9623 53.503 74.2522 54.0239 74.4251C52.3344 74.7588 50.6716 75.1565 49.0676 75.5913C49.0542 75.5501 49.0342 75.5115 49.0088 75.4743L41.8074 65.1271C40.3917 63.0898 38.2561 61.7228 35.792 61.276C33.8688 60.9276 31.9335 61.1762 30.2039 61.9714C29.0447 59.1217 28.457 56.107 28.457 52.9993C28.457 49.1947 29.3545 45.5962 30.9465 42.3994C31.0267 42.3502 31.0921 42.2771 31.1322 42.1853C31.1616 42.1148 31.1709 42.0417 31.1656 41.9699C35.1789 34.3075 43.2338 29.0628 52.496 29.0628C65.7515 29.0628 76.5363 39.801 76.5363 52.9993C76.5363 57.1802 75.4384 61.2946 73.3603 64.8983C71.3449 68.3944 68.452 71.3506 64.9943 73.4503C62.7024 73.3426 60.3144 73.4796 57.9237 73.7868ZM50.3444 64.1045L51.497 64.8132V70.0261C50.7223 67.901 50.4432 65.3997 50.3444 64.1045ZM52.4319 65.389L54.3017 66.5393V73.5381C53.913 73.4064 53.5497 73.1844 53.2065 72.8718C52.9207 72.6099 52.6643 72.296 52.4319 71.945V65.389ZM57.9077 68.7561L58.4847 69.1112C58.5661 69.6657 58.7184 71.3186 57.9077 72.4702V68.7561ZM56.9728 68.2933V73.2828C56.5387 73.5088 56.0179 73.6445 55.4089 73.6804C55.3501 73.6844 55.2927 73.6857 55.2366 73.6857V67.1138L56.9862 68.1896C56.9781 68.2229 56.9728 68.2574 56.9728 68.2933ZM62.4487 42.0962C59.4436 42.0962 56.906 40.6042 56.906 38.8382C56.906 37.0722 59.4436 35.5802 62.4487 35.5802C65.4537 35.5802 67.9913 37.0722 67.9913 38.8382C67.9913 40.6042 65.4537 42.0962 62.4487 42.0962ZM58.0693 41.9233C59.2219 42.6082 60.7592 43.0257 62.4487 43.0257C64.1275 43.0257 65.6567 42.6122 66.808 41.9353C66.8387 41.9712 66.8734 42.0044 66.9161 42.0297C68.432 42.9672 69.5793 44.3156 70.2511 45.8848H56.5174C56.2089 45.3688 55.8523 44.8861 55.4529 44.4406C56.106 43.4938 56.9541 42.676 57.9291 42.063C57.9878 42.0271 58.0346 41.9792 58.0693 41.9233ZM55.4062 45.8861H41.4441C42.976 43.6787 45.5323 42.2292 48.4251 42.2292C51.318 42.2292 53.8743 43.6787 55.4062 45.8861ZM48.337 59.115C48.3063 59.0086 48.2756 58.9023 48.2408 58.7972C48.1126 58.4089 47.9577 58.0339 47.7761 57.6749C51.3394 57.2839 53.901 54.361 53.901 50.6734C53.901 49.2532 53.4856 47.9314 52.7711 46.817H55.9658C56.5655 47.9739 56.906 49.2838 56.906 50.6734C56.906 55.3291 53.101 59.1177 48.4251 59.1177C48.3958 59.1177 48.3664 59.115 48.337 59.115ZM66.2978 48.6575C66.2978 48.0205 66.211 47.4034 66.052 46.817H70.5876C70.812 47.5816 70.9309 48.3862 70.9309 49.2106C70.9309 52.2878 69.2534 55.1136 66.5502 56.603L60.5441 55.5977C63.8216 54.9714 66.2978 52.103 66.2978 48.6575ZM32.8751 37.6347C31.2831 37.1015 30.1946 35.6134 30.1946 33.9179C30.1946 31.7543 31.9616 29.995 34.1345 29.995C35.8895 29.995 37.4361 31.1692 37.9182 32.8235C36.0217 34.1865 34.3228 35.8062 32.8751 37.6347ZM65.1919 31.5921C65.2961 29.5202 67.0203 27.8673 69.1265 27.8673C71.2995 27.8673 73.0664 29.6266 73.0664 31.7902C73.0664 33.5389 71.9259 35.0469 70.2671 35.5443C68.7566 34.0203 67.0524 32.6892 65.1919 31.5921ZM67.4223 23.1053C64.0994 23.7223 61.3308 26.1093 60.285 29.3726C57.8343 28.5694 55.2165 28.1333 52.4986 28.1333C48.9901 28.1333 45.6498 28.858 42.6181 30.1639C41.2077 27.0043 38.168 24.9111 34.7262 24.6957C40.0498 21.3725 46.1614 19.6225 52.4986 19.6225C57.686 19.6225 62.8119 20.822 67.4223 23.1053ZM34.1345 25.6066C37.4481 25.6066 40.4264 27.5428 41.766 30.5495C40.7069 31.0535 39.6905 31.6293 38.7196 32.2703C38.0317 30.378 36.1993 29.0641 34.1332 29.0641C31.4447 29.0641 29.2584 31.241 29.2584 33.9179C29.2584 35.9113 30.4751 37.6746 32.2861 38.41C31.601 39.3488 30.9799 40.3355 30.4297 41.3661C27.5929 39.9685 25.7859 37.0975 25.7859 33.9166C25.7872 29.3354 29.5322 25.6066 34.1345 25.6066ZM20.9271 64.2467C19.6329 60.6456 18.9771 56.861 18.9771 52.9993C18.9771 46.1747 21.0059 39.6799 24.8577 34.1121C24.9298 37.5669 26.9184 40.668 30.0076 42.1946C28.4169 45.4633 27.5248 49.1295 27.5248 52.9979C27.5248 56.256 28.1485 59.4182 29.3759 62.4036C29.1822 62.518 28.9899 62.6363 28.8029 62.7653C25.7351 64.8784 24.3328 68.5034 24.9017 71.9463C23.2429 69.5633 21.9087 66.9822 20.9271 64.2467ZM45.8088 91.2325C40.759 91.3681 35.9883 87.0396 32.8791 83.3879C29.4654 79.3786 27.2497 75.2775 27.2283 75.2362C27.2203 75.2203 27.2109 75.2057 27.2002 75.191C24.5612 71.3918 25.5174 66.163 29.3318 63.5353C30.7462 62.5606 32.3929 62.0539 34.0865 62.0539C34.5966 62.0539 35.1108 62.1004 35.625 62.1935C37.8434 62.5951 39.7653 63.8265 41.0394 65.659L48.134 75.8519C46.2148 76.3945 44.3917 76.9823 42.7276 77.5634C42.4845 77.6485 42.3563 77.9145 42.4418 78.1565C42.5273 78.3985 42.793 78.5275 43.0375 78.4411C56.2329 73.836 64.3358 73.9423 68.81 74.8426C72.4841 75.582 74.366 76.9623 75.0564 77.5807C65.0824 86.2723 54.9775 90.9918 45.8088 91.2325ZM86.0215 53.0006C86.0215 57.6868 85.0652 62.2201 83.1794 66.4715C81.4204 70.437 78.9376 73.9729 75.8004 76.9929C75.1005 76.3267 73.1185 74.7828 69.1225 73.9543C68.2838 73.7801 67.4197 73.6538 66.5395 73.5647C69.6647 71.445 72.2891 68.6311 74.1736 65.3624C76.3333 61.6177 77.4738 57.3424 77.4738 52.9993C77.4738 48.2944 76.1543 43.8901 73.8651 40.1347C76.6792 38.4712 78.4087 35.4698 78.4087 32.1878C78.4087 32.0602 78.4047 31.9338 78.3994 31.8075C83.3263 37.7703 86.0215 45.2359 86.0215 53.0006Z" fill="#FFAF96"/>
<path d="M47.4234 32.0562C43.8454 32.0562 40.9459 33.9312 40.9459 36.245C40.9459 38.5589 43.8454 40.4339 47.4234 40.4339C51.0014 40.4339 53.901 38.5589 53.901 36.245C53.901 33.9312 51.0014 32.0562 47.4234 32.0562ZM47.4234 39.5031C44.4184 39.5031 41.8808 38.011 41.8808 36.245C41.8808 34.4791 44.4184 32.987 47.4234 32.987C50.4285 32.987 52.9661 34.4791 52.9661 36.245C52.9661 38.011 50.4285 39.5031 47.4234 39.5031Z" fill="#FFAF96"/>
<path d="M4.55169 53.998C5.62124 53.998 6.48827 53.1347 6.48827 52.0698C6.48827 51.0049 5.62124 50.1416 4.55169 50.1416C3.48215 50.1416 2.61511 51.0049 2.61511 52.0698C2.61511 53.1347 3.48215 53.998 4.55169 53.998Z" fill="#FFAF96"/>
<path d="M99.6443 53.998C100.714 53.998 101.581 53.1347 101.581 52.0698C101.581 51.0049 100.714 50.1416 99.6443 50.1416C98.5748 50.1416 97.7078 51.0049 97.7078 52.0698C97.7078 53.1347 98.5748 53.998 99.6443 53.998Z" fill="#FFAF96"/>
</svg>
