<svg width="44" height="43" viewBox="0 0 44 43" fill="none" xmlns="http://www.w3.org/2000/svg">
<g clip-path="url(#clip0_19_531)">
<path d="M20.2625 2.27699C21.2424 -0.761275 22.8471 -0.761275 23.827 2.27699L24.6055 4.69053C25.5854 7.7288 28.6002 8.82462 31.3044 7.12797L33.452 5.77953C36.1561 4.08288 37.3853 5.11384 36.1834 8.07018L35.2274 10.4189C34.0256 13.3752 35.6303 16.154 38.792 16.591L41.3015 16.9392C44.4631 17.3761 44.7431 18.9567 41.9195 20.4486L39.6797 21.6331C36.8595 23.125 36.2995 26.2827 38.4437 28.6519L40.144 30.5329C42.2848 32.902 41.4824 34.288 38.3618 33.6189L35.883 33.0864C32.7623 32.4173 30.304 34.4758 30.4235 37.6677L30.5157 40.2007C30.6352 43.3892 29.126 43.9388 27.1662 41.4194L25.6093 39.4189C23.6495 36.8996 20.4434 36.8996 18.4802 39.4189L16.9233 41.4194C14.9634 43.9388 13.4577 43.3892 13.5738 40.2007L13.666 37.6677C13.7855 34.4792 11.3272 32.4173 8.20652 33.0864L5.72772 33.6189C2.60704 34.288 1.80468 32.902 3.94545 30.5329L5.64578 28.6519C7.78656 26.2827 7.23002 23.125 4.4098 21.6331L2.17001 20.4486C-0.650218 18.9567 -0.373658 17.3761 2.788 16.9392L5.29752 16.591C8.45918 16.154 10.0639 13.3752 8.86207 10.4189L7.90606 8.07018C6.70422 5.11384 7.93337 4.08288 10.6375 5.77953L12.7851 7.12797C15.4893 8.82462 18.5041 7.7288 19.484 4.69053L20.2625 2.27699Z" fill="#AF0032"/>
<line x1="15.3649" y1="16.9167" x2="28.7246" y2="16.9167" stroke="white" stroke-width="2"/>
<line x1="15.3649" y1="21.3958" x2="28.7246" y2="21.3958" stroke="white" stroke-width="2"/>
<line x1="15.3649" y1="25.875" x2="28.7246" y2="25.875" stroke="white" stroke-width="2"/>
</g>
<defs>
<clipPath id="clip0_19_531">
<rect width="43.6418" height="43" fill="white" transform="translate(0.223877)"/>
</clipPath>
</defs>
</svg>
